<svg width="96" height="23" viewBox="0 0 96 23" fill="none" xmlns="http://www.w3.org/2000/svg">
<rect width="96" height="23" rx="11.5" fill="url(#paint0_linear_38_5)"/>
<rect x="3.4" y="2.4" width="89.2" height="18.2" rx="9.1" stroke="white" stroke-width="0.8"/>
<path d="M36.137 15.473H32.001V7.333H33.189V14.34H36.137V15.473ZM40.6841 8.279C39.9215 8.279 39.3201 8.60167 38.8801 9.247C38.4768 9.82633 38.2751 10.545 38.2751 11.403C38.2751 12.2683 38.4768 12.9907 38.8801 13.57C39.3201 14.2153 39.9215 14.538 40.6841 14.538C41.4468 14.538 42.0481 14.2153 42.4881 13.57C42.8841 12.9907 43.0821 12.2683 43.0821 11.403C43.0821 10.5523 42.8841 9.83367 42.4881 9.247C42.0481 8.60167 41.4468 8.279 40.6841 8.279ZM40.6841 7.168C41.8575 7.168 42.7705 7.60433 43.4231 8.477C44.0025 9.25433 44.2885 10.2297 44.2811 11.403C44.2665 12.6863 43.9658 13.6983 43.3791 14.439C42.7411 15.2457 41.8428 15.649 40.6841 15.649C39.5328 15.649 38.6308 15.2457 37.9781 14.439C37.3768 13.6837 37.0761 12.6717 37.0761 11.403C37.0761 10.215 37.3621 9.236 37.9341 8.466C38.5795 7.60067 39.4961 7.168 40.6841 7.168ZM52.5323 10.864V15.121C51.7477 15.451 50.8897 15.616 49.9583 15.616C48.697 15.616 47.6923 15.2273 46.9443 14.45C46.211 13.6873 45.8443 12.6717 45.8443 11.403C45.8443 10.1343 46.222 9.11867 46.9773 8.356C47.7327 7.57867 48.73 7.19 49.9693 7.19C50.9227 7.19 51.6743 7.322 52.2243 7.586L52.0813 8.752C51.546 8.45867 50.842 8.312 49.9693 8.312C49.0673 8.312 48.3523 8.60167 47.8243 9.181C47.311 9.73833 47.0543 10.479 47.0543 11.403C47.0543 12.3343 47.3037 13.0787 47.8023 13.636C48.3157 14.208 49.0343 14.494 49.9583 14.494C50.5523 14.494 51.0033 14.4353 51.3113 14.318V11.986H49.6173V10.864H52.5323ZM55.7895 15.473H54.5795V7.333H55.7895V15.473ZM63.6064 15.517H62.2864L58.7664 9.368V15.517H57.5784V7.311H58.8434L62.4184 13.559V7.311H63.6064V15.517Z" fill="white"/>
<defs>
<linearGradient id="paint0_linear_38_5" x1="0" y1="11.5" x2="96" y2="11.5" gradientUnits="userSpaceOnUse">
<stop stop-color="#4F7ABE"/>
<stop offset="1" stop-color="#8A5CA5"/>
</linearGradient>
</defs>
</svg>
